<?xml version="1.0" encoding="utf-8"?>
<!-- Generator: Adobe Illustrator 16.0.0, SVG Export Plug-In . SVG Version: 6.00 Build 0)  -->
<!DOCTYPE svg PUBLIC "-//W3C//DTD SVG 1.1//EN" "http://www.w3.org/Graphics/SVG/1.1/DTD/svg11.dtd">
<svg version="1.1" id="Layer_1" xmlns="http://www.w3.org/2000/svg" xmlns:xlink="http://www.w3.org/1999/xlink" x="0px" y="0px"
	 width="841.89px" height="595.281px" viewBox="0 0 841.89 595.281" enable-background="new 0 0 841.89 595.281"
	 xml:space="preserve">
<g>
	<path fill="#FFFFFF" d="M603.466,231.299c0,4.378,3.705,8.082,8.082,8.082c4.379,0,8.082-3.704,8.082-8.082
		s-3.703-8.082-8.082-8.082C607.171,223.217,603.466,226.921,603.466,231.299"/>
	<path fill="#FFFFFF" d="M214.514,230.962l-12.46,4.041v16.165h-13.807v10.776h13.47v35.023c0,16.501,5.725,23.236,19.532,23.236
		c3.368,0,6.735-0.336,10.103-1.348h0.674v-11.111l-1.01,0.336c-2.694,1.01-4.715,1.348-6.398,1.348
		c-6.398,0-9.092-3.705-9.092-13.471v-33.676h15.827v-11.113h-15.827v-20.542L214.514,230.962z"/>
	<path fill="#FFFFFF" d="M257.281,262.281v-11.113h-12.46v68.025h13.807V285.18c0-14.144,6.062-22.226,16.838-22.226
		c1.684,0,3.031,0.337,5.051,0.674l1.01,0.336l0.337-13.47l-6.062-0.336C267.721,250.158,261.323,254.535,257.281,262.281"/>
	<path fill="#FFFFFF" d="M355.614,249.821c-9.429,0-17.511,4.378-22.563,12.797v-11.45h-12.46v95.638h13.807v-37.043
		c5.051,6.734,12.124,10.439,20.879,10.439c17.511,0,28.625-14.145,28.625-36.37C383.902,263.628,372.452,249.821,355.614,249.821
		 M351.91,309.089c-10.776,0-17.848-9.43-17.848-24.246c0-14.48,7.072-23.91,18.185-23.91c10.776,0,17.174,8.756,17.174,23.573
		C369.421,299.66,362.686,309.089,351.91,309.089"/>
	<path fill="#FFFFFF" d="M423.976,249.821c-8.419,0-15.828,1.684-22.563,4.714l-0.337,0.337v11.787l1.01-0.674
		c6.398-3.704,12.46-5.388,18.185-5.388c10.103,0,15.828,5.725,15.828,15.827v0.674h-7.746c-22.562,0-35.022,8.082-35.022,23.235
		c0,12.123,9.092,20.205,21.889,20.205c9.43,0,16.838-3.703,21.889-10.775v9.766h12.461v-41.42
		C449.57,259.25,441.15,249.821,423.976,249.821 M436.099,290.568c0,11.787-7.072,19.195-17.848,19.195
		c-6.735,0-11.45-4.377-11.45-10.775c0-8.083,7.745-12.797,22.226-12.797h7.072V290.568z"/>
	<path fill="#FFFFFF" d="M508.164,218.839v41.758c-5.051-7.072-12.123-10.776-21.215-10.776c-16.838,0-28.287,13.807-28.287,34.349
		c0,21.216,11.449,36.033,27.951,36.033c9.766,0,17.174-4.377,22.563-12.797v11.787h12.797V218.839H508.164z M490.316,308.753
		c-10.439,0-17.174-9.094-17.174-23.91c0-14.817,6.734-24.246,16.838-24.246c11.449,0,18.184,9.092,18.184,24.246
		C508.164,299.66,501.093,308.753,490.316,308.753"/>
	<polygon fill="#FFFFFF" points="583.597,251.168 564.066,290.568 545.88,251.168 530.39,251.168 563.73,319.193 597.742,251.168 	
		"/>
	<polygon fill="#FFFFFF" points="617.947,251.168 604.814,251.168 604.814,319.193 618.621,319.193 618.621,251.168 	"/>
	<path fill="#FFFFFF" d="M634.785,268.679c0,9.429,6.734,14.48,18.521,20.542c7.746,3.705,11.787,6.062,11.787,11.112
		c0,5.389-5.053,9.094-12.461,9.094c-5.387,0-11.449-1.684-17.174-4.379l-1.01-0.336l-0.338,12.123l0.338,0.336
		c5.725,2.357,11.785,3.367,17.848,3.367c16.838,0,27.613-8.082,27.613-20.541c0-10.439-6.734-15.491-18.857-21.216
		c-8.756-4.041-12.461-6.398-12.461-10.776c0-4.042,4.041-6.735,10.439-6.735c5.725,0,11.113,1.347,16.502,3.704l1.01,0.337
		l0.674-11.787h-0.674c-5.725-1.684-11.449-2.694-16.838-2.694C644.888,250.494,634.785,257.903,634.785,268.679"/>
	<path fill="#FFFFFF" d="M723.015,249.821c-20.543,0-33.676,13.47-33.676,35.696c0,21.889,12.797,35.695,33.676,35.695
		s33.676-13.469,33.676-35.695C756.691,263.291,743.556,249.821,723.015,249.821 M723.015,309.427
		c-11.449,0-19.195-9.768-19.195-24.584c0-14.817,7.746-24.583,19.195-24.583c11.785,0,19.195,9.766,19.195,24.583
		C742.21,299.998,734.464,309.427,723.015,309.427"/>
	<path fill="#FFFFFF" d="M781.947,262.281v-11.113h-12.459v68.025h13.807V285.18c0-14.144,6.061-22.226,16.838-22.226
		c1.684,0,3.031,0.337,5.051,0.674l1.01,0.336l0.338-13.47l-6.063-0.336C792.386,250.158,785.988,254.535,781.947,262.281"/>
	<polygon fill="#FFFFFF" points="306.448,251.168 293.314,251.168 293.314,319.193 307.121,319.193 307.121,251.168 	"/>
	<path fill="#FFFFFF" d="M291.967,231.299c0,4.378,3.705,8.082,8.082,8.082c4.378,0,8.083-3.704,8.083-8.082
		s-3.705-8.082-8.083-8.082C295.672,223.217,291.967,226.921,291.967,231.299"/>
	<path fill="#FFFFFF" d="M112.813,238.708c4.378-1.684,9.093-2.357,13.47-2.694c-12.123-5.388-25.93-8.082-41.084-8.082
		s-29.298,2.694-41.421,8.082c21.889,0.337,40.074,17.848,41.421,39.4c0.337-5.051,1.684-9.766,3.704-14.48
		C93.618,250.494,102.037,242.412,112.813,238.708"/>
	<path fill="#FFFFFF" d="M127.294,264.301c-7.746,0-13.807,6.062-13.807,13.807c0,7.745,6.062,13.807,13.807,13.807
		c7.745,0,13.807-6.062,13.807-13.807C141.101,270.363,135.039,264.301,127.294,264.301 M127.294,285.18
		c-4.042,0-7.072-3.031-7.072-7.072s3.031-7.072,7.072-7.072c4.041,0,7.072,3.031,7.072,7.072
		C134.366,281.813,131.335,285.18,127.294,285.18"/>
	<path fill="#FFFFFF" d="M115.507,246.79c-8.419,3.031-15.154,9.429-19.195,17.511c-3.704,8.082-4.041,17.511-1.01,25.93l0,0
		c3.031,8.418,9.429,15.155,17.511,19.196c8.419,3.703,17.512,4.041,25.93,1.01c17.512-6.398,26.604-25.93,20.206-43.778
		C152.887,249.147,133.355,240.055,115.507,246.79 M127.294,298.988c-11.45,0-20.879-9.43-20.879-20.879s9.429-20.879,20.879-20.879
		c11.449,0,20.878,9.429,20.878,20.879S139.08,298.988,127.294,298.988"/>
	<path fill="#FFFFFF" d="M42.095,264.301c-7.746,0-13.807,6.062-13.807,13.807c0,7.745,6.062,13.807,13.807,13.807
		c7.745,0,13.807-6.062,13.807-13.807C55.901,270.363,49.503,264.301,42.095,264.301 M42.095,285.18
		c-4.042,0-7.072-3.031-7.072-7.072s3.031-7.072,7.072-7.072c4.041,0,7.072,3.031,7.072,7.072
		C49.167,281.813,45.799,285.18,42.095,285.18"/>
	<path fill="#FFFFFF" d="M42.431,244.433c-18.858,0-34.012,15.154-34.012,34.012c0,18.858,15.154,34.012,34.012,34.012
		s34.012-15.153,34.012-34.012C76.443,259.587,61.29,244.433,42.431,244.433 M42.095,298.988c-11.45,0-20.879-9.43-20.879-20.879
		s9.429-20.879,20.879-20.879c11.449,0,20.878,9.429,20.878,20.879S53.544,298.988,42.095,298.988"/>
	<path fill="#FFFFFF" d="M42.095,271.037c-4.042,0-7.072,3.031-7.072,7.072s3.031,7.072,7.072,7.072
		c4.041,0,7.072-3.031,7.072-7.072S45.799,271.037,42.095,271.037"/>
	<path fill="#FFFFFF" d="M127.294,271.037c-4.042,0-7.072,3.031-7.072,7.072s3.031,7.072,7.072,7.072
		c4.041,0,7.072-3.031,7.072-7.072S131.335,271.037,127.294,271.037"/>
	<path fill="#FFFFFF" d="M161.643,253.188c2.021-8.419,8.419-17.175,8.419-17.175h-28.287
		c-15.828-10.439-35.359-15.827-56.575-15.827c-22.226,0-42.431,5.725-58.259,15.827L0,236.351c0,0,6.398,8.419,8.419,16.838
		C3.031,260.26,0,269.016,0,278.445c0,23.572,19.195,42.432,42.431,42.432c13.47,0,25.257-6.398,33.339-15.828l9.092,13.471
		l9.093-13.807c4.041,5.387,9.429,9.43,15.491,12.459c10.439,4.715,21.889,5.389,32.665,1.348
		c21.889-8.082,33.339-32.666,25.257-54.555C166.021,259.923,164,256.219,161.643,253.188 M113.15,309.427
		c-8.082-3.705-14.48-10.439-17.511-19.196l0,0c-3.031-8.419-2.694-17.848,1.01-25.93s10.439-14.48,19.195-17.511
		c17.511-6.398,37.043,2.694,43.778,20.205c6.398,17.512-2.694,37.043-20.205,43.778C130.661,313.468,121.569,313.13,113.15,309.427
		 M42.431,312.457c-18.858,0-34.012-15.153-34.012-34.012c0-18.858,15.154-34.012,34.012-34.012s34.012,15.154,34.012,34.012
		C76.443,296.967,61.29,312.457,42.431,312.457 M112.813,238.708c-10.776,4.041-19.195,11.786-23.91,22.226
		c-2.021,4.715-3.367,9.429-3.704,14.48c-1.684-21.889-19.532-39.063-41.421-39.4c12.123-5.051,26.267-8.082,41.421-8.082
		s28.961,2.694,41.084,8.082C121.569,236.014,117.191,237.024,112.813,238.708"/>
	<path fill="#FFFFFF" d="M42.095,256.893c-11.45,0-20.879,9.429-20.879,20.879s9.429,20.878,20.879,20.878
		c11.449,0,20.878-9.429,20.878-20.878S53.544,256.893,42.095,256.893 M42.095,291.915c-7.746,0-13.807-6.062-13.807-13.807
		c0-7.746,6.062-13.807,13.807-13.807c7.745,0,13.807,6.062,13.807,13.807C55.901,285.517,49.503,291.915,42.095,291.915"/>
	<path fill="#FFFFFF" d="M127.294,256.893c-11.45,0-20.879,9.429-20.879,20.879s9.429,20.878,20.879,20.878
		c11.449,0,20.878-9.429,20.878-20.878S139.08,256.893,127.294,256.893 M127.294,291.915c-7.746,0-13.807-6.062-13.807-13.807
		c0-7.746,6.062-13.807,13.807-13.807c7.745,0,13.807,6.062,13.807,13.807C141.101,285.517,135.039,291.915,127.294,291.915"/>
	<path opacity="0.5" fill="#FFFFFF" enable-background="new    " d="M838.523,243.086c2.355,2.357,3.367,5.388,3.367,8.418
		c0,3.368-1.348,6.398-3.705,8.419c-2.357,2.357-5.389,3.368-8.418,3.368c-3.369,0-6.398-1.347-8.42-3.704
		c-2.357-2.357-3.367-5.388-3.367-8.419c0-3.368,1.348-6.398,3.705-8.756s5.051-3.368,8.418-3.368
		C833.134,239.718,836.166,240.729,838.523,243.086z M823.031,244.433c-2.02,2.021-3.031,4.378-3.031,7.072
		c0,2.694,1.012,5.051,2.695,6.735c2.02,2.021,4.377,3.031,7.072,3.031c2.693,0,5.051-1.01,7.07-2.694
		c2.021-1.684,3.031-4.378,3.031-7.072c0-2.694-1.01-5.051-2.693-7.072c-2.021-2.021-4.379-3.031-7.072-3.031
		C827.072,241.739,824.714,242.749,823.031,244.433z M830.103,244.77c3.705,0,5.725,1.347,5.725,3.704
		c0,1.684-1.01,3.031-2.693,3.705l3.031,5.725h-4.379l-2.357-5.388h-1.01v5.388h-3.705V244.77H830.103z M828.419,250.494h1.348
		c1.684,0,2.357-0.673,2.357-1.684c0-1.347-0.674-1.684-2.695-1.684h-1.01V250.494z"/>
</g>
<g enable-background="new    ">
	<path fill="#FFFFFF" d="M660.041,346.47h-14.143v20.205c4.377,0,9.766-0.674,16.838-1.684v3.367
		c-6.398,1.01-12.797,1.684-19.869,2.02v-27.275h17.512v3.367H660.041z M676.207,376.777h-3.369v-18.521h-5.387v16.166h-3.369
		v-35.359h3.369v15.826h5.387v-17.848h3.369V376.777z"/>
	<path fill="#FFFFFF" d="M706.177,347.144h-22.563v-3.369h22.563V347.144z M703.82,354.552c0,1.684-1.01,3.031-2.693,4.041
		c-1.686,1.01-3.705,1.684-6.398,1.684c-2.357,0-4.715-0.674-6.398-1.684s-2.695-2.357-2.695-4.041s1.012-3.031,2.695-4.041
		s3.703-1.684,6.398-1.684c2.693,0,4.713,0.674,6.398,1.684C703.146,351.521,703.82,352.869,703.82,354.552z M712.912,375.767
		h-24.92v-13.471h3.367v9.768h21.553V375.767z M700.115,354.552c0-0.674-0.336-1.348-1.346-1.684
		c-1.012-0.338-2.357-0.674-3.705-0.674c-1.684,0-3.031,0.336-3.705,0.674c-0.672,0.336-1.346,1.01-1.346,1.684
		s0.336,1.346,1.346,1.684c1.012,0.336,2.357,0.674,3.705,0.674c1.684,0,3.031-0.338,3.705-0.674
		C699.779,355.898,700.115,355.226,700.115,354.552z M699.779,341.755h-9.766v-3.367h9.766V341.755z M719.31,353.205h-6.734v13.133
		h-3.031v-29.633h3.031v13.133h6.734V353.205z"/>
	<path fill="#FFFFFF" d="M746.587,340.072v19.869h-19.195v-19.869H746.587z M730.423,343.775v12.797h12.797v-12.797H730.423z
		 M760.394,375.767h-27.949v-13.471h3.367v9.768h24.582V375.767z M757.027,366.337v-29.633h3.367v29.633H757.027z"/>
	<path fill="#FFFFFF" d="M803.164,355.226h-16.166v5.051h-3.367v-5.051h-15.826v-3.369h26.604c0.336-3.703,0.672-6.398,0.672-8.418
		h-23.572v-3.367h27.277c0,2.357-0.674,6.061-1.348,11.785h5.389v3.369H803.164z M795.417,376.441v-10.775h-23.572v-3.369h26.939
		v14.145H795.417z"/>
</g>
</svg>
