<?xml version="1.0" encoding="utf-8"?>
<!-- Generator: Adobe Illustrator 16.0.0, SVG Export Plug-In . SVG Version: 6.00 Build 0)  -->
<!DOCTYPE svg PUBLIC "-//W3C//DTD SVG 1.1//EN" "http://www.w3.org/Graphics/SVG/1.1/DTD/svg11.dtd">
<svg version="1.1" id="Layer_1" xmlns="http://www.w3.org/2000/svg" xmlns:xlink="http://www.w3.org/1999/xlink" x="0px" y="0px"
	 width="562px" height="482.14px" viewBox="140.445 0 562 482.14" enable-background="new 140.445 0 562 482.14"
	 xml:space="preserve">
<g>
	<path fill="#353535" d="M412.153,183.163c-6.594-14.653-19.782-38.098-43.227-46.89c-6.594-2.931-14.653-4.396-22.712-4.396
		c-27.108,0-51.286,13.92-52.019,14.653l-3.663,2.198l1.465,4.396c0.732,2.198,13.92,46.157,47.622,59.345
		c6.594,2.931,14.653,4.396,22.712,4.396l0,0c22.712,0,43.959-10.257,49.82-13.92v64.473h10.989v-97.442c2.932,0,5.861,0,9.525,0
		c19.781,0,57.146-3.664,81.324-27.108c33.701-33.702,27.107-94.512,26.375-97.443l-0.732-4.396l-4.396-0.732
		c0,0-6.594-0.732-16.117-0.732c-19.049,0.732-56.414,4.396-79.859,27.841c-32.969,32.969-27.108,91.582-26.375,96.71v19.049
		H412.153z M362.333,205.875c-6.594,0-13.188-1.465-19.049-3.664c-23.445-8.792-35.9-37.365-39.563-47.622
		c7.327-3.664,24.91-10.99,42.494-10.99c6.594,0,13.188,1.465,19.049,3.663c16.119,6.594,27.108,21.979,33.702,34.435
		c-11.723-7.327-28.574-14.653-49.088-16.118l-0.732,10.99c24.91,2.198,43.959,13.92,53.483,20.514
		C393.104,200.014,377.718,205.875,362.333,205.875z M446.587,75.463c21.248-21.247,54.949-24.178,73.266-24.178
		c4.396,0,7.326,0,10.258,0c0.732,13.92,1.465,58.612-23.445,83.522c-21.248,21.247-54.949,24.178-73.266,24.178
		c-2.197,0-4.396,0-6.594,0c6.594-12.456,24.91-40.296,57.146-57.88l-5.129-9.524c-27.84,15.386-45.424,36.633-55.682,52.019
		C423.142,123.818,427.539,94.512,446.587,75.463z"/>
	<path fill="#353535" d="M553.554,82.79v10.99h96.711V444.72H235.583c-23.445,0-43.226-19.049-43.226-43.227
		c0-23.445,19.049-43.227,43.226-43.227c2.931,0,8.06,0.732,10.99,1.465l5.861,1.465l0.733-5.859V93.047H408.49v-10.99H253.167
		V19.782h-5.129c0,0-12.455-0.733-16.851-0.733c-28.574,0-49.821,19.782-49.821,46.89v334.823l0,0c0,0,0,0,0,0.732
		c0,30.039,24.178,54.217,54.216,54.217h425.672V82.79H553.554z M192.357,67.404c0-20.515,16.118-35.9,38.831-35.9
		c2.93,0,7.326,0,11.722,0v317.238c-2.198,0-5.128-0.732-7.327-0.732c-17.583,0-32.969,8.793-43.226,21.248V67.404z"/>
	<path fill="#353535" d="M556.486,180.965v10.99h10.99v183.164l20.514,41.027l20.514-41.027V191.955h12.455v77.661h10.99V156.055
		h-24.178v-16.119c0-10.99-8.791-20.514-20.514-20.514c-10.99,0-20.516,8.792-20.516,20.514v16.119h-10.256v10.99h10.99v13.92
		H556.486z M587.99,391.236l-9.525-19.049v-2.93h19.049v2.93L587.99,391.236z M596.781,358.267h-18.316V191.955h19.049v166.312
		H596.781z M620.226,167.045v13.92h-12.455v-13.92H620.226z M578.464,139.937c0-5.128,4.396-9.524,9.525-9.524
		s9.523,4.396,9.523,9.524v16.119h-19.049V139.937z M578.464,167.045h19.049v13.92h-19.049V167.045z"/>
	<rect x="282.474" y="307.714" fill="#353535" width="248.37" height="10.99"/>
	<rect x="282.474" y="355.337" fill="#353535" width="248.37" height="10.988"/>
	<rect x="356.471" y="402.958" fill="#353535" width="174.372" height="10.99"/>
</g>
</svg>
