<?xml version="1.0" encoding="utf-8"?>
<!-- Generator: Adobe Illustrator 16.0.0, SVG Export Plug-In . SVG Version: 6.00 Build 0)  -->
<!DOCTYPE svg PUBLIC "-//W3C//DTD SVG 1.1//EN" "http://www.w3.org/Graphics/SVG/1.1/DTD/svg11.dtd">
<svg version="1.1" id="Layer_1" xmlns="http://www.w3.org/2000/svg" xmlns:xlink="http://www.w3.org/1999/xlink" x="0px" y="0px"
	 width="507px" height="449.14px" viewBox="165.445 0 507 449.14" enable-background="new 165.445 0 507 449.14"
	 xml:space="preserve">
<path fill="#353535" d="M629.751,65.265L629.751,65.265C190.159,190.732,202.98,179.742,201.149,190.732s6.411,8.243,87.918,65.939
	l29.306,130.961v0.916c0,0.916,0,0.916,0.916,1.832l0.916,0.916l0.916,0.916l0.916,0.914c0,0,0,0,0.916,0.916h0.916h0.916
	c0.916,0,1.832,0.916,2.748,0.916l0,0l0,0l0,0c0.916,0,1.832,0,2.748-0.916c0,0,0,0,0.916,0c0.916,0,1.832-0.916,1.832-1.83l0,0
	l64.107-62.277c86.086,57.697,100.739,74.182,107.151,59.529C643.488,68.929,640.74,78.087,640.74,74.423
	C640.74,62.518,627.003,65.265,629.751,65.265z M232.287,195.311l320.535-89.75L298.226,240.186L232.287,195.311z M326.616,340.009
	l-15.569-68.686c0.916,0.916,26.559,17.4,24.727,16.485L326.616,340.009z M315.626,252.092l80.592-43.043l130.045-68.686
	l-179.5,132.793C345.848,272.24,313.794,250.26,315.626,252.092z M342.185,359.242l10.99-59.527
	c0.916,0.916,32.054,21.064,30.222,20.148L342.185,359.242z M493.294,372.064c-8.242-5.496-105.319-71.434-130.962-87.919
	l247.271-182.247L493.294,372.064z"/>
</svg>
