<?xml version="1.0" encoding="utf-8"?>
<!-- Generator: Adobe Illustrator 16.0.0, SVG Export Plug-In . SVG Version: 6.00 Build 0)  -->
<!DOCTYPE svg PUBLIC "-//W3C//DTD SVG 1.1//EN" "http://www.w3.org/Graphics/SVG/1.1/DTD/svg11.dtd">
<svg version="1.1" id="Layer_1" xmlns="http://www.w3.org/2000/svg" xmlns:xlink="http://www.w3.org/1999/xlink" x="0px" y="0px"
	 width="145px" height="80px" viewBox="0 0 145 80" enable-background="new 0 0 145 80" xml:space="preserve">
<g>
	<path d="M9.125,10.162v51.596H8.739V10.162H9.125z M10.344,10.162v51.596H9.958V10.162H10.344z M10.921,64.902
		c0-0.043,0.128-0.182,0.385-0.418c0.257-0.234,0.471-0.354,0.642-0.354h3.979l0.578,0.578v2.439h-0.962
		c0-0.129-0.032-0.375-0.096-0.738c-0.064-0.363-0.119-0.588-0.161-0.674c0-0.086-0.054-0.17-0.161-0.258
		c-0.107-0.084-0.182-0.127-0.225-0.127h-2.374l-0.385,0.385v6.354l0.385,0.385H14.9l0.385-0.385v-2.055H14.13v-1.154h2.375v4.043
		l-0.77,0.77h-3.979l-0.834-0.77V64.902z M11.755,10.162v51.596h-0.449V10.162H11.755z M15.542,10.162v51.596h-1.797V10.162H15.542z
		 M18.109,10.162v51.596h-1.797V10.162H18.109z"/>
	<path d="M19.456,10.162h1.797v51.596h-1.797V10.162z M21.061,64.324h1.091v3.787h3.401v-3.787h1.091v9.563h-1.091v-4.365h-3.401
		v4.365h-1.091V64.324z M22.023,10.162h0.449v51.596h-0.449V10.162z M23.243,10.162h0.385v51.596h-0.385V10.162z M25.81,10.162
		h1.797v51.596H25.81V10.162z M28.44,10.162h0.385v51.596H28.44V10.162z"/>
	<path d="M30.558,10.162v51.596h-0.385V10.162H30.558z M33.188,10.162v51.596h-1.797V10.162H33.188z M32.162,70.678h1.026
		c-0.043,0.129-0.032,0.375,0.032,0.738c0.064,0.363,0.117,0.588,0.161,0.674c0,0.086,0.053,0.172,0.16,0.256
		c0.106,0.086,0.182,0.129,0.225,0.129h2.375l0.385-0.385v-2.375l-0.385-0.514h-3.401l-0.577-0.705v-3.338l0.77-0.834h4.428
		l0.385,0.385v2.439h-1.027c0.042-0.129,0.032-0.375-0.032-0.738c-0.064-0.363-0.118-0.588-0.16-0.674
		c0-0.086-0.054-0.17-0.161-0.258c-0.107-0.084-0.183-0.127-0.225-0.127h-2.375l-0.385,0.385v1.797l0.385,0.514h3.401l0.578,0.641
		v4.621l-0.385,0.385h-4.621l-0.577-0.578V70.678z M34.344,10.162v51.596h-0.385V10.162H34.344z M36.975,10.162v51.596h-1.797
		V10.162H36.975z M39.542,10.162v51.596h-0.385V10.162H39.542z"/>
	<path d="M40.889,10.162h0.385v51.596h-0.385V10.162z M42.108,10.162h1.797v51.596h-1.797V10.162z M42.686,64.324h4.557l1.219,1.219
		v2.568l-1.604,1.668h-3.08v3.914h-1.091V64.324z M44.098,65.543v2.953h2.567l0.578-0.578v-1.99l-0.385-0.385H44.098z
		 M44.675,10.162h1.797v51.596h-1.797V10.162z M47.242,10.162h0.449v51.596h-0.449V10.162z M49.873,10.162h0.385v51.596h-0.385
		V10.162z"/>
	<path d="M51.605,10.162h1.797v51.596h-1.797V10.162z M53.595,72.924v-7.766l0.77-0.834h4.043l0.77,0.834v7.766l-0.77,0.77h-4.043
		L53.595,72.924z M54.172,10.162h0.449v51.596h-0.449V10.162z M54.814,72.09l0.385,0.385h2.375l0.385-0.385v-6.162l-0.385-0.385
		h-2.375l-0.385,0.385V72.09z M55.392,10.162h1.797v51.596h-1.797V10.162z M57.959,10.162h0.449v51.596h-0.449V10.162z
		 M60.59,10.162h0.385v51.596H60.59V10.162z"/>
	<path d="M64.119,10.162v51.596h-1.797V10.162H64.119z M68.098,64.324c0.257,0,0.47,0.107,0.642,0.32
		c0.17,0.215,0.321,0.473,0.449,0.771s0.214,0.588,0.257,0.865c0.042,0.279,0.064,0.504,0.064,0.674
		c0,0.729-0.182,1.219-0.545,1.477c-0.364,0.256-0.717,0.621-1.059,1.09c0.427,0.557,0.908,1.211,1.444,1.959
		c0.534,0.748,0.802,1.486,0.802,2.213h-1.284l-1.54-3.209c-0.086-0.084-0.225-0.225-0.417-0.416
		c-0.192-0.193-0.332-0.311-0.417-0.354c-0.086-0.043-0.332-0.01-0.738,0.096c-0.407,0.107-0.653,0.16-0.738,0.16v3.723h-1.091
		v-9.369H68.098z M65.338,10.162v51.596h-0.449V10.162H65.338z M65.082,68.303h2.631l0.578-0.578
		c0.042-0.342,0.064-0.555,0.064-0.641v-0.258c0-0.17-0.011-0.352-0.032-0.545c-0.022-0.191-0.064-0.363-0.128-0.514
		c-0.064-0.148-0.161-0.225-0.289-0.225h-2.824V68.303z M66.494,10.162v51.596h-0.385V10.162H66.494z M69.125,10.162v51.596h-1.797
		V10.162H69.125z M71.692,10.162v51.596h-0.385V10.162H71.692z"/>
	<path d="M73.039,10.162h0.385v51.596h-0.385V10.162z M74.258,10.162h0.385v51.596h-0.385V10.162z M77.338,65.416h-2.311v-1.092
		h5.775v1.092h-2.311v8.277h-1.154V65.416z M75.606,10.162h1.797v51.596h-1.797V10.162z M78.043,10.162h1.797v51.596h-1.797V10.162z
		 M82.022,10.162h0.385v51.596h-0.385V10.162z"/>
	<path d="M83.754,10.162h0.385v51.596h-0.385V10.162z M84.975,10.162h1.797v51.596h-1.797V10.162z M85.745,64.324h5.391v1.092
		h-4.172v2.373h3.787v1.221h-3.916v4.684h-1.09V64.324z M87.542,10.162h1.797v51.596h-1.797V10.162z M91.52,10.162h0.385v51.596
		H91.52V10.162z M92.739,10.162h0.385v51.596h-0.385V10.162z"/>
	<path d="M94.471,10.162h1.797v51.596h-1.797V10.162z M96.461,72.924v-7.766l0.77-0.834h4.043l0.77,0.834v7.766l-0.77,0.77h-4.043
		L96.461,72.924z M97.04,10.162h0.449v51.596H97.04V10.162z M97.68,72.09l0.385,0.385h2.375l0.385-0.385v-6.162l-0.385-0.385h-2.375
		l-0.385,0.385V72.09z M98.258,10.162h1.797v51.596h-1.797V10.162z M100.825,10.162h0.449v51.596h-0.449V10.162z M103.456,10.162
		h0.385v51.596h-0.385V10.162z"/>
	<path d="M105.188,10.162h0.385v51.596h-0.385V10.162z M106.409,10.162h1.797v51.596h-1.797V10.162z M108.59,64.324h1.09v8.471
		h4.492v1.092h-5.582V64.324z M108.975,10.162h0.385v51.596h-0.385V10.162z M110.387,10.162h0.385v51.596h-0.385V10.162z
		 M112.76,10.162h1.797v51.596h-1.797V10.162z"/>
	<path d="M115.905,10.162h0.385v51.596h-0.385V10.162z M117.124,10.162h1.797v51.596h-1.797V10.162z M119.69,10.162h0.387v51.596
		h-0.387V10.162z M120.268,64.324h1.027v9.563h-1.027V64.324z M122.258,10.162h1.797v51.596h-1.797V10.162z M124.889,10.162h0.385
		v51.596h-0.385V10.162z"/>
	<path d="M126.622,10.162h1.797v51.596h-1.797V10.162z M128.61,72.924v-7.766l0.771-0.834h4.043l0.77,0.834v7.766l-0.77,0.77h-4.043
		L128.61,72.924z M129.188,10.162h0.449v51.596h-0.449V10.162z M129.831,72.09l0.385,0.385h2.375l0.385-0.385v-6.162l-0.385-0.385
		h-2.375l-0.385,0.385V72.09z M130.407,10.162h1.797v51.596h-1.797V10.162z M132.975,10.162h0.449v51.596h-0.449V10.162z
		 M135.606,10.162h0.385v51.596h-0.385V10.162z"/>
</g>
<g>
	<g>
		<path fill="none" stroke="#FFFFFF" stroke-miterlimit="10" d="M2,137.667"/>
	</g>
</g>
</svg>
