<?xml version="1.0" encoding="utf-8"?>
<!-- Generator: Adobe Illustrator 16.0.0, SVG Export Plug-In . SVG Version: 6.00 Build 0)  -->
<!DOCTYPE svg PUBLIC "-//W3C//DTD SVG 1.1//EN" "http://www.w3.org/Graphics/SVG/1.1/DTD/svg11.dtd">
<svg version="1.1" id="Layer_1" xmlns="http://www.w3.org/2000/svg" xmlns:xlink="http://www.w3.org/1999/xlink" x="0px" y="0px"
	 width="563px" height="425.14px" viewBox="135.445 0 563 425.14" enable-background="new 135.445 0 563 425.14"
	 xml:space="preserve">
<g>
	<path fill="#353535" d="M614.412,394.373H227.479c-12.307,0-22.323-10.016-22.323-22.322V104.174
		c0-12.307,10.016-22.323,22.323-22.323h104.174c12.307,0,22.323,10.016,22.323,22.323c0,4.093,3.334,7.441,7.441,7.441h119.055
		c4.107,0,7.441-3.349,7.441-7.441c0-12.307,10.016-22.323,22.324-22.323h104.174c12.307,0,22.322,10.016,22.322,22.323V372.05
		C636.734,384.357,626.718,394.373,614.412,394.373z M227.479,96.733c-4.107,0-7.441,3.349-7.441,7.441V372.05
		c0,4.092,3.333,7.441,7.441,7.441h386.933c4.107,0,7.439-3.35,7.439-7.441V104.174c0-4.092-3.332-7.441-7.439-7.441H510.238
		c-4.107,0-7.441,3.349-7.441,7.441c0,12.308-10.016,22.323-22.324,22.323H361.417c-12.308,0-22.323-10.016-22.323-22.323
		c0-4.092-3.333-7.441-7.441-7.441H227.479z"/>
	<circle fill="#353535" cx="330.521" cy="188.54" r="42.503"/>
	<path fill="#353535" d="M418.683,327.404H242.361c0-55.495,39.467-100.468,88.161-100.468
		C379.216,226.936,418.683,271.909,418.683,327.404z"/>
	<rect x="435.828" y="156.261" fill="#353535" width="178.584" height="14.882"/>
	<rect x="435.828" y="186.025" fill="#353535" width="133.938" height="14.882"/>
	<rect x="435.828" y="215.789" fill="#353535" width="44.645" height="14.882"/>
	<rect x="435.828" y="245.553" fill="#353535" width="133.938" height="14.882"/>
	<rect x="435.828" y="275.317" fill="#353535" width="148.818" height="14.882"/>
	<rect x="435.828" y="305.082" fill="#353535" width="14.881" height="14.881"/>
	<path fill="#353535" d="M502.796,126.497H339.094v-74.41h163.703V126.497z M353.976,111.615h133.938V66.969H353.976V111.615z"/>
</g>
</svg>
