<?xml version="1.0" encoding="utf-8"?>
<!-- Generator: Adobe Illustrator 16.0.0, SVG Export Plug-In . SVG Version: 6.00 Build 0)  -->
<!DOCTYPE svg PUBLIC "-//W3C//DTD SVG 1.1//EN" "http://www.w3.org/Graphics/SVG/1.1/DTD/svg11.dtd">
<svg version="1.1" id="Layer_1" xmlns="http://www.w3.org/2000/svg" xmlns:xlink="http://www.w3.org/1999/xlink" x="0px" y="0px"
	 width="347px" height="465.14px" viewBox="247.445 0 347 465.14" enable-background="new 247.445 0 347 465.14"
	 xml:space="preserve">
<g>
	<path fill="#343434" d="M516.189,452.414H325.7c-18.573,0-33.336-14.764-33.336-33.336V57.147
		c0-18.573,14.763-33.336,33.336-33.336h190.489c18.574,0,33.336,14.763,33.336,33.336v361.931
		C549.525,437.65,534.763,452.414,516.189,452.414z M325.7,33.336c-13.334,0-23.812,10.477-23.812,23.811v361.931
		c0,13.334,10.477,23.811,23.812,23.811h190.489c13.334,0,23.813-10.477,23.813-23.811V57.147c0-13.334-10.479-23.811-23.813-23.811
		H325.7z"/>
</g>
<g>
	<line fill="#343434" x1="397.134" y1="47.623" x2="444.755" y2="47.623"/>
	<path fill="#343434" d="M444.755,52.385h-47.622c-2.857,0-4.762-1.905-4.762-4.762s1.905-4.762,4.762-4.762h47.622
		c2.857,0,4.764,1.905,4.764,4.762S447.613,52.385,444.755,52.385z"/>
</g>
<g>
	<line fill="#343434" x1="301.889" y1="66.671" x2="487.617" y2="66.671"/>
	<path fill="#343434" d="M487.617,71.434H301.889c-2.857,0-4.762-1.905-4.762-4.762s1.905-4.762,4.762-4.762h185.728
		c2.857,0,4.762,1.905,4.762,4.762S490.474,71.434,487.617,71.434z"/>
</g>
<g>
	<line fill="#343434" x1="301.889" y1="400.029" x2="540.001" y2="400.029"/>
	<path fill="#343434" d="M540.001,404.791H301.889c-2.857,0-4.762-1.904-4.762-4.762s1.905-4.764,4.762-4.764h238.113
		c2.857,0,4.762,1.906,4.762,4.764S542.859,404.791,540.001,404.791z"/>
</g>
<g>
	<line fill="#343434" x1="506.666" y1="66.671" x2="544.763" y2="66.671"/>
	<path fill="#343434" d="M544.763,71.434h-38.098c-2.857,0-4.762-1.905-4.762-4.762s1.904-4.762,4.762-4.762h38.098
		c2.857,0,4.762,1.905,4.762,4.762S547.621,71.434,544.763,71.434z"/>
</g>
<circle fill="#343434" cx="425.707" cy="423.84" r="9.524"/>
</svg>
